<svg width="223" height="182" viewBox="0 0 223 182" version="1.1" xmlns="http://www.w3.org/2000/svg" xmlns:xlink="http://www.w3.org/1999/xlink" xml:space="preserve" xmlns:serif="http://www.serif.com/" fill-rule="evenodd" clip-rule="evenodd" stroke-linejoin="round" stroke-miterlimit="1.414"><path d="M29.527 90.421V29.953H189.56v65.174l-14.474-2.441-5.021-10.499-13.554-22.352-5.892-9.411-10.02 3.53-19.738-26.2-24.059-2.234-17.05 15.499-17.938 32.74-18.451 6.663-13.836 9.999z" fill="#78a22e" fill-rule="nonzero"/><path d="M181 97.319c1.523-.729 19.152 14.465 19.152 14.465l-10.527-17.069s15.315 14.976 31.765 17.099c-11.714-1.86-32.334-28.304-32.334-28.304s-4.128 7.35-10.652 5.97c-6.524-1.379-29.719-47.548-29.719-47.548-1.701 1.067-3.42 2.13-5.139 3.199-5.967 3.696-7.11 2.8-12.945-6.087L106.802 0 91.983 23.381c-3.225 3.716-6.795 5.162-10.685 4.351l-19.7 34.869c-4.868 7.409-7.265 7.564-11.319 5.792-2.019-.892-2.89-3.538-4.954-4.209-11.563 19.307-25.883 38.8-45.325 47.88 13.655-2.221 25.789-9.103 38.571-26.673-2.216 5.571-5.392 14.627-7.624 20.202 0 0 17.702-25.597 18.359-24.075 1.627 3.773 2.811 14.135 2.811 14.135L81.218 42.12l-5.883 23.451 17.428-31.693-1.311 15.05 10.559-24.066 2.093 16.61 2.08-13.966 16.985 50.738-8.2-45.328 18.513 29.665c-.545-2.456-3.921-11.026-7.517-20.07l19.278 27.264-2.487-13.916 17.102 30.636-7.033-22.76 28.307 44.713s-3.202-9.653-.132-11.129" fill="#fff" fill-rule="nonzero"/><path fill="#78a22e" d="M29.504 166.027h160.033V182H29.504z"/><path d="M58.1 135.311l-.54-10.548c-.099-1.668-.148-3.434-.099-5.347h-.098c-.392 1.864-.934 3.728-1.425 5.396l-3.195 10.548h-3.489l-3.244-10.548c-.444-1.471-1.032-3.532-1.426-5.396h-.098c.098 2.06 0 3.728-.098 5.347l-.64 10.548h-5.455l1.818-31.299h4.67l4.276 14.03a135.303 135.303 0 0 1 1.868 7.066h.098c.54-2.307 1.131-4.809 1.818-7.066l4.277-14.03h4.621l1.866 31.299H58.1zM69.455 135.311v-31.299h12.338v5.053h-6.439v7.996h5.259v5.103h-5.259v8.094h7.176v5.053H69.455zM95.124 109.163h-1.032v20.997h1.032c2.653 0 4.964-3.14 4.964-10.499 0-7.358-2.311-10.498-4.964-10.498m.492 26.148h-7.325v-31.299h7.325c5.8 0 10.567 5.004 10.567 15.649 0 10.646-4.767 15.65-10.567 15.65" fill="#005a84" fill-rule="nonzero"/><path fill="#005a84" d="M111.528 104.012h5.947v31.299h-5.947z"/><path d="M138.464 110.537c-.639-.736-1.819-1.57-3.736-1.57-3.292 0-5.16 4.513-5.16 10.694 0 6.133 1.819 10.646 5.308 10.646 1.769 0 3.096-.687 3.834-1.668l-.345 5.788c-.883.737-2.505 1.326-4.571 1.326-5.995 0-10.272-5.887-10.272-16.092 0-10.154 4.277-16.09 10.272-16.09 2.312 0 4.08.784 4.966 1.521l-.296 5.445zM152.569 117.552c-.147-.883-.344-1.864-.491-2.992h-.099c-.098 1.128-.342 2.109-.49 2.992l-1.132 6.035h3.343l-1.131-6.035zm3.393 17.759l-1.376-7.212h-5.112l-1.376 7.212h-5.458l7.178-31.397h4.817l7.175 31.397h-5.848zM166.578 135.311v-31.299h5.898v26.148h7.471v5.151h-13.369zM44.775 149.062c-.113-.679-.264-1.432-.377-2.298h-.076c-.075.866-.264 1.619-.378 2.298l-.866 4.632h2.565l-.868-4.632zm2.603 13.63l-1.055-5.534h-3.924l-1.058 5.534h-4.187l5.508-24.099h3.697l5.509 24.099h-4.49zM59.312 163.031c-1.773 0-3.169-.64-3.999-1.468l-.264-4.67c.904 1.168 2.15 1.997 3.621 1.997 1.358 0 2.038-.829 2.038-2.147 0-1.506-.793-3.125-2.151-4.82-1.961-2.448-3.244-4.858-3.244-7.531 0-3.577 2.075-6.062 5.47-6.062 1.736 0 2.868.528 3.396 1.016l-.227 4.143c-.528-.528-1.51-1.093-2.489-1.093-1.095 0-1.699.679-1.699 1.733 0 1.393.641 2.523 1.962 4.104 2.264 2.71 3.584 5.385 3.584 8.171 0 4.142-2.113 6.627-5.998 6.627M73.091 163.031c-1.773 0-3.169-.64-3.999-1.468l-.264-4.67c.904 1.168 2.15 1.997 3.621 1.997 1.358 0 2.038-.829 2.038-2.147 0-1.506-.793-3.125-2.151-4.82-1.961-2.448-3.244-4.858-3.244-7.531 0-3.577 2.075-6.062 5.47-6.062 1.736 0 2.868.528 3.396 1.016l-.226 4.143c-.529-.528-1.511-1.093-2.49-1.093-1.094 0-1.699.679-1.699 1.733 0 1.393.642 2.523 1.962 4.104 2.264 2.71 3.585 5.385 3.585 8.171 0 4.142-2.114 6.627-5.999 6.627M90.217 142.547c-1.773 0-3.244 3.352-3.244 8.134 0 4.744 1.471 8.096 3.244 8.096 1.774 0 3.245-3.352 3.245-8.096 0-4.782-1.471-8.134-3.245-8.134m0 20.484c-4.791 0-7.923-4.932-7.923-12.35 0-7.418 3.132-12.351 7.923-12.351 4.79 0 7.924 4.933 7.924 12.351 0 7.418-3.134 12.35-7.924 12.35M112.726 143.677c-.49-.565-1.396-1.206-2.868-1.206-2.527 0-3.96 3.464-3.96 8.21 0 4.706 1.395 8.171 4.075 8.171 1.357 0 2.376-.527 2.942-1.28l-.264 4.443c-.679.564-1.924 1.016-3.509 1.016-4.602 0-7.884-4.518-7.884-12.35 0-7.795 3.282-12.352 7.884-12.352 1.774 0 3.132.603 3.811 1.168l-.227 4.18z" fill="#005a84" fill-rule="nonzero"/><path fill="#005a84" d="M117.191 138.669h4.564v24.024h-4.564z"/><path d="M133.197 149.062c-.114-.679-.265-1.432-.378-2.298h-.075c-.076.866-.264 1.619-.378 2.298l-.867 4.632h2.565l-.867-4.632zm2.602 13.63l-1.055-5.534h-3.924l-1.057 5.534h-4.187l5.507-24.099h3.698l5.508 24.099h-4.49zM149.333 142.51v20.182h-4.565V142.51h-4.15v-3.841h12.827v3.841h-4.112zM157.363 162.692v-24.023h9.47v3.879h-4.942v6.138h4.036v3.914h-4.036v6.215h5.507v3.877h-10.035zM175.068 163.031c-1.773 0-3.168-.64-3.998-1.468l-.264-4.67c.904 1.168 2.15 1.997 3.621 1.997 1.358 0 2.038-.829 2.038-2.147 0-1.506-.793-3.125-2.151-4.82-1.962-2.448-3.244-4.858-3.244-7.531 0-3.577 2.075-6.062 5.47-6.062 1.736 0 2.868.528 3.396 1.016l-.227 4.143c-.528-.528-1.51-1.093-2.489-1.093-1.095 0-1.699.679-1.699 1.733 0 1.393.641 2.523 1.962 4.104 2.264 2.71 3.584 5.385 3.584 8.171 0 4.142-2.113 6.627-5.999 6.627" fill="#005a84" fill-rule="nonzero"/><path fill="#fff" d="M38.028 170.801H39.8v7.274h-1.772z"/><path d="M52.096 178.156l-2.834-3.101a40.568 40.568 0 0 1-1.359-1.597l-.023.012c.023.512.034 1.071.034 1.527v3.079h-1.77v-7.274h1.427l2.468 2.713c.343.376.857.969 1.188 1.391l.024-.011a24.995 24.995 0 0 1-.035-1.358v-2.735h1.77v7.354h-.89zM62.67 172.215v5.861h-1.759v-5.872h-2.206v-1.402h6.159v1.413H62.67zM70.583 178.076v-7.274h4.25v1.448h-2.48v1.447h2.023v1.471h-2.023v1.459h2.8v1.449h-4.57zM83.44 172.192h-.753v1.631h.753c.458 0 .915-.251.915-.822 0-.546-.457-.809-.915-.809m1.84 5.884l-1.964-2.863h-.629v2.863h-1.702v-7.275h2.718c1.245 0 2.354.832 2.354 2.2 0 .856-.502 1.54-1.119 1.826l2.319 3.249H85.28zM98.573 178.156l-2.834-3.101a39.73 39.73 0 0 1-1.359-1.597l-.023.012c.023.512.034 1.071.034 1.527v3.079h-1.77v-7.274h1.427l2.468 2.713c.343.376.857.969 1.188 1.391l.024-.011a24.995 24.995 0 0 1-.035-1.358v-2.735h1.77v7.354h-.89zM108.852 173.766a7.023 7.023 0 0 1-.229-.742h-.024a5.412 5.412 0 0 1-.227.742l-.526 1.459h1.53l-.524-1.459zm1.53 4.31l-.571-1.516h-2.4l-.559 1.516h-1.668l2.868-7.331h1.221l2.869 7.331h-1.76zM120.455 172.215v5.861h-1.76v-5.872h-2.206v-1.402h6.159v1.413h-2.193z" fill="#fff" fill-rule="nonzero"/><path fill="#fff" d="M128.479 170.801h1.772v7.274h-1.772z"/><path d="M140.287 172.181c-1.098 0-2.125.889-2.125 2.247 0 1.367 1.027 2.257 2.125 2.257 1.096 0 2.135-.89 2.135-2.257 0-1.358-1.039-2.247-2.135-2.247m0 6.066c-2.012 0-3.92-1.47-3.92-3.819 0-2.327 1.908-3.797 3.92-3.797 2.022 0 3.93 1.47 3.93 3.797 0 2.349-1.908 3.819-3.93 3.819M156.174 178.156l-2.834-3.101a39.73 39.73 0 0 1-1.359-1.597l-.023.012c.023.512.034 1.071.034 1.527v3.079h-1.77v-7.274h1.428l2.467 2.713c.343.376.857.969 1.188 1.391l.024-.011a24.995 24.995 0 0 1-.035-1.358v-2.735h1.77v7.354h-.89zM166.452 173.766a6.796 6.796 0 0 1-.229-.742h-.024a5.412 5.412 0 0 1-.227.742l-.526 1.459h1.53l-.524-1.459zm1.53 4.31l-.571-1.516h-2.4l-.559 1.516h-1.669l2.869-7.331h1.221l2.868 7.331h-1.759zM175.461 178.076v-7.274h1.771v5.758h2.924v1.516h-4.695z" fill="#fff" fill-rule="nonzero"/><path d="M71.506 98.835h-1.585l-1.488-4.506c-.224-.688-.448-1.375-.672-2.27h-.034a28.114 28.114 0 0 1-.672 2.27l-1.488 4.506h-1.585l-3.41-10.26h2.385l1.329 4.123c.208.623.4 1.279.544 2.046h.032c.16-.767.336-1.407.544-2.046l1.345-4.123h2.146l1.329 4.107c.176.559.368 1.327.528 2.062h.032a17.88 17.88 0 0 1 .546-2.046l1.36-4.123h2.225l-3.411 10.26z" fill="#78a22e" fill-rule="nonzero"/><path fill="#78a22e" d="M76.83 88.574h2.483V98.77H76.83z"/><path d="M82.032 98.771V88.575h2.482v8.071h4.099v2.125h-6.581zM93.588 90.701h-.769v5.945h.769c1.778 0 3.282-.991 3.282-2.973 0-1.982-1.504-2.972-3.282-2.972m.288 8.07h-3.443V88.575h3.443c2.946 0 5.475 1.918 5.475 5.098 0 3.181-2.529 5.098-5.475 5.098M101.587 98.771V88.575h5.957v2.03h-3.475v2.029h2.834v2.062h-2.834v2.045h3.923v2.03h-6.405zM113.431 90.525h-1.057v2.285h1.057c.642 0 1.281-.351 1.281-1.15 0-.768-.639-1.135-1.281-1.135m2.578 8.246l-2.754-4.011h-.881v4.011h-2.386V88.575h3.811c1.746 0 3.299 1.167 3.299 3.085 0 1.198-.705 2.157-1.569 2.557l3.251 4.554h-2.771zM128.461 98.883l-3.971-4.347a55.082 55.082 0 0 1-1.905-2.237l-.032.016c.032.719.048 1.503.048 2.141v4.315h-2.482V88.575h2.001l3.459 3.804a41.48 41.48 0 0 1 1.666 1.95l.032-.016a36.82 36.82 0 0 1-.048-1.902v-3.836h2.482v10.308h-1.25zM132.265 98.771V88.575h5.957v2.03h-3.475v2.029h2.834v2.062h-2.834v2.045h3.923v2.03h-6.405zM143.565 99.011c-1.265 0-2.354-.32-3.09-.863l-.224-2.381c.992.783 2.064 1.166 3.202 1.166.912 0 1.424-.383 1.424-.99 0-.608-.351-.912-1.616-1.359-1.778-.623-2.722-1.758-2.722-3.164 0-1.726 1.296-3.101 3.538-3.101 1.265 0 2.049.32 2.499.607l-.192 2.078c-.482-.32-1.315-.639-2.115-.639-.88 0-1.298.383-1.298.878 0 .481.354.784 1.57 1.184 1.633.543 2.835 1.678 2.835 3.276 0 1.998-1.298 3.308-3.811 3.308M152.285 99.011c-1.264 0-2.353-.32-3.09-.863l-.224-2.381c.993.783 2.065 1.166 3.202 1.166.912 0 1.425-.383 1.425-.99 0-.608-.351-.912-1.617-1.359-1.777-.623-2.722-1.758-2.722-3.164 0-1.726 1.297-3.101 3.538-3.101 1.266 0 2.05.32 2.499.607l-.192 2.078c-.481-.32-1.314-.639-2.115-.639-.88 0-1.297.383-1.297.878 0 .481.353.784 1.569 1.184 1.634.543 2.835 1.678 2.835 3.276 0 1.998-1.297 3.308-3.811 3.308" fill="#78a22e" fill-rule="nonzero"/><path d="M182.61 99.265c1.523-.729 19.151 14.464 19.151 14.464l-10.526-17.071s15.315 14.976 31.765 17.1c-11.714-1.859-32.335-28.304-32.335-28.304s-4.127 7.351-10.651 5.972c-6.525-1.382-29.719-47.549-29.719-47.549-1.701 1.066-3.42 2.13-5.139 3.199-5.967 3.695-7.11 2.799-12.945-6.088L108.412 1.944 93.594 25.326c-3.227 3.716-6.797 5.161-10.687 4.35L63.209 64.545c-4.869 7.409-7.266 7.564-11.32 5.794-2.018-.894-2.89-3.54-4.955-4.21-11.562 19.305-25.883 38.8-45.324 47.878 13.655-2.221 25.789-9.101 38.571-26.673-2.216 5.571-5.392 14.629-7.626 20.202 0 0 16.313-25.425 17.981-26.615 3.588-2.557 6.972 3.269 6.972 3.269l23.71-42.07-4.273 25.395s11.665-29.932 14.137-30.51c2.47-.578 1.979 13.868 1.979 13.868l10.559-24.066 2.093 16.609 2.081-13.966 14.212 44.519-5.428-39.109 16.504 30.418s-6.439-20.194-5.507-20.823c.928-.629 15.275 27.646 15.275 27.646l1.516-14.297 18.942 30.379-8.873-22.504 28.307 44.712s-3.202-9.653-.132-11.126" fill="#005a84" fill-rule="nonzero"/></svg>